<svg xmlns="http://www.w3.org/2000/svg" viewBox="0 0 1600 1000"><defs><linearGradient id="g" x1="0" y1="0" x2="1" y2="1"><stop offset="0" stop-color="#4a2b4a"/><stop offset="1" stop-color="#000" stop-opacity=".55"/></linearGradient></defs><rect width="1600" height="1000" fill="#4a2b4a"/><rect width="1600" height="1000" fill="url(#g)"/><circle cx="1250" cy="260" r="180" fill="#e8d3b0" opacity=".35"/><rect x="0" y="700" width="1600" height="300" fill="#000" opacity=".18"/><rect x="180" y="600" width="150" height="14" rx="7" fill="#e8d3b0" opacity=".55"/><rect x="245" y="614" width="20" height="120" fill="#e8d3b0" opacity=".35"/><rect x="410" y="630" width="150" height="14" rx="7" fill="#e8d3b0" opacity=".55"/><rect x="475" y="644" width="20" height="120" fill="#e8d3b0" opacity=".35"/><rect x="640" y="600" width="150" height="14" rx="7" fill="#e8d3b0" opacity=".55"/><rect x="705" y="614" width="20" height="120" fill="#e8d3b0" opacity=".35"/><rect x="870" y="630" width="150" height="14" rx="7" fill="#e8d3b0" opacity=".55"/><rect x="935" y="644" width="20" height="120" fill="#e8d3b0" opacity=".35"/><rect x="1100" y="600" width="150" height="14" rx="7" fill="#e8d3b0" opacity=".55"/><rect x="1165" y="614" width="20" height="120" fill="#e8d3b0" opacity=".35"/><rect x="1330" y="630" width="150" height="14" rx="7" fill="#e8d3b0" opacity=".55"/><rect x="1395" y="644" width="20" height="120" fill="#e8d3b0" opacity=".35"/></svg>